<mxfile host="app.diagrams.net" agent="Mozilla/5.0 (Macintosh; Intel Mac OS X 10_15_7) AppleWebKit/605.1.15 (KHTML, like Gecko) Version/18.1.1 Safari/605.1.15" version="26.0.8">
  <diagram id="R2lEEEUBdFMjLlhIrx00" name="Page-1">
    <mxGraphModel grid="1" page="1" gridSize="10" guides="1" tooltips="1" connect="1" arrows="1" fold="1" pageScale="1" pageWidth="850" pageHeight="1100" math="0" shadow="0" extFonts="Permanent Marker^https://fonts.googleapis.com/css?family=Permanent+Marker">
      <root>
        <mxCell id="0" />
        <mxCell id="1" parent="0" />
        <mxCell id="cucAOomLdPTThUQUA-6N-160" value="" style="rounded=0;whiteSpace=wrap;html=1;" vertex="1" parent="1">
          <mxGeometry x="670" y="170" width="1280" height="820" as="geometry" />
        </mxCell>
        <mxCell id="cucAOomLdPTThUQUA-6N-114" value="Google Services" style="whiteSpace=wrap;strokeWidth=2;verticalAlign=middle;fontSize=15;" vertex="1" parent="1">
          <mxGeometry x="1610" y="440" width="298" height="340" as="geometry" />
        </mxCell>
        <mxCell id="cucAOomLdPTThUQUA-6N-115" value="Gradio API" style="whiteSpace=wrap;strokeWidth=2;verticalAlign=top;fontSize=20;" vertex="1" parent="1">
          <mxGeometry x="1160" y="200" width="370" height="760" as="geometry" />
        </mxCell>
        <mxCell id="cucAOomLdPTThUQUA-6N-116" value="Speech to Text and Sign script.py" style="whiteSpace=wrap;strokeWidth=2;verticalAlign=top;fontSize=15;" vertex="1" parent="1">
          <mxGeometry x="1196" y="630" width="304" height="300" as="geometry" />
        </mxCell>
        <mxCell id="cucAOomLdPTThUQUA-6N-117" value="Sign to Text and Speech script.py" style="whiteSpace=wrap;strokeWidth=2;verticalAlign=top;fontSize=15;" vertex="1" parent="1">
          <mxGeometry x="1196" y="240" width="304" height="344" as="geometry" />
        </mxCell>
        <mxCell id="cucAOomLdPTThUQUA-6N-118" value="Mobile App" style="whiteSpace=wrap;strokeWidth=2;verticalAlign=middle;fontSize=20;" vertex="1" parent="1">
          <mxGeometry x="710" y="440" width="316" height="320" as="geometry" />
        </mxCell>
        <mxCell id="cucAOomLdPTThUQUA-6N-119" value="Sign to Text&#xa;and Speech" style="whiteSpace=wrap;strokeWidth=2;fontSize=20;" vertex="1" parent="1">
          <mxGeometry x="747" y="490" width="243" height="60" as="geometry" />
        </mxCell>
        <mxCell id="cucAOomLdPTThUQUA-6N-120" value="Speech to Text&#xa;and Sign" style="whiteSpace=wrap;strokeWidth=2;fontSize=20;" vertex="1" parent="1">
          <mxGeometry x="747" y="650" width="243" height="60" as="geometry" />
        </mxCell>
        <mxCell id="cucAOomLdPTThUQUA-6N-121" value="Process Video" style="whiteSpace=wrap;strokeWidth=2;fontSize=20;" vertex="1" parent="1">
          <mxGeometry x="1274" y="271" width="158" height="49" as="geometry" />
        </mxCell>
        <mxCell id="cucAOomLdPTThUQUA-6N-142" style="edgeStyle=orthogonalEdgeStyle;rounded=0;orthogonalLoop=1;jettySize=auto;html=1;entryX=0.5;entryY=0;entryDx=0;entryDy=0;" edge="1" parent="1" source="cucAOomLdPTThUQUA-6N-122" target="cucAOomLdPTThUQUA-6N-123">
          <mxGeometry relative="1" as="geometry" />
        </mxCell>
        <mxCell id="cucAOomLdPTThUQUA-6N-147" value="&lt;font style=&quot;font-size: 15px;&quot;&gt;Text&lt;/font&gt;" style="edgeLabel;html=1;align=center;verticalAlign=middle;resizable=0;points=[];" connectable="0" vertex="1" parent="cucAOomLdPTThUQUA-6N-142">
          <mxGeometry x="-0.0458" y="-1" relative="1" as="geometry">
            <mxPoint as="offset" />
          </mxGeometry>
        </mxCell>
        <mxCell id="cucAOomLdPTThUQUA-6N-148" style="edgeStyle=orthogonalEdgeStyle;rounded=1;orthogonalLoop=1;jettySize=auto;html=1;entryX=0;entryY=0.25;entryDx=0;entryDy=0;curved=0;exitX=1;exitY=0.5;exitDx=0;exitDy=0;" edge="1" parent="1">
          <mxGeometry relative="1" as="geometry">
            <mxPoint x="1418.5" y="412" as="sourcePoint" />
            <mxPoint x="1643" y="516.25" as="targetPoint" />
            <Array as="points">
              <mxPoint x="1419" y="410" />
              <mxPoint x="1580" y="410" />
              <mxPoint x="1580" y="516" />
            </Array>
          </mxGeometry>
        </mxCell>
        <mxCell id="cucAOomLdPTThUQUA-6N-149" value="&lt;font style=&quot;font-size: 15px;&quot;&gt;Text&lt;/font&gt;" style="edgeLabel;html=1;align=center;verticalAlign=middle;resizable=0;points=[];" connectable="0" vertex="1" parent="cucAOomLdPTThUQUA-6N-148">
          <mxGeometry x="0.0772" y="-3" relative="1" as="geometry">
            <mxPoint y="25" as="offset" />
          </mxGeometry>
        </mxCell>
        <mxCell id="cucAOomLdPTThUQUA-6N-122" value="MediaPipe" style="whiteSpace=wrap;strokeWidth=2;fontSize=20;" vertex="1" parent="1">
          <mxGeometry x="1285.5" y="387" width="133" height="50" as="geometry" />
        </mxCell>
        <mxCell id="cucAOomLdPTThUQUA-6N-123" value="Format Text&#xa;and Speech" style="whiteSpace=wrap;strokeWidth=2;fontSize=20;" vertex="1" parent="1">
          <mxGeometry x="1230" y="488" width="244" height="62" as="geometry" />
        </mxCell>
        <mxCell id="cucAOomLdPTThUQUA-6N-143" style="edgeStyle=orthogonalEdgeStyle;rounded=1;orthogonalLoop=1;jettySize=auto;html=1;entryX=0;entryY=0.5;entryDx=0;entryDy=0;curved=0;" edge="1" parent="1" source="cucAOomLdPTThUQUA-6N-124" target="cucAOomLdPTThUQUA-6N-128">
          <mxGeometry relative="1" as="geometry">
            <Array as="points">
              <mxPoint x="1560" y="670" />
              <mxPoint x="1560" y="704" />
            </Array>
          </mxGeometry>
        </mxCell>
        <mxCell id="cucAOomLdPTThUQUA-6N-153" value="&lt;font style=&quot;font-size: 15px;&quot;&gt;speech&lt;/font&gt;" style="edgeLabel;html=1;align=center;verticalAlign=middle;resizable=0;points=[];" connectable="0" vertex="1" parent="cucAOomLdPTThUQUA-6N-143">
          <mxGeometry x="0.2557" y="-2" relative="1" as="geometry">
            <mxPoint y="-11" as="offset" />
          </mxGeometry>
        </mxCell>
        <mxCell id="cucAOomLdPTThUQUA-6N-124" value="Audio of Speech" style="whiteSpace=wrap;strokeWidth=2;fontSize=20;" vertex="1" parent="1">
          <mxGeometry x="1264.5" y="659" width="175" height="49" as="geometry" />
        </mxCell>
        <mxCell id="cucAOomLdPTThUQUA-6N-125" value="3D Hand Model" style="whiteSpace=wrap;strokeWidth=2;fontSize=20;" vertex="1" parent="1">
          <mxGeometry x="1269.5" y="744" width="167" height="49" as="geometry" />
        </mxCell>
        <mxCell id="cucAOomLdPTThUQUA-6N-126" value="Format Video&#xa;and Text" style="whiteSpace=wrap;strokeWidth=2;fontSize=20;" vertex="1" parent="1">
          <mxGeometry x="1235" y="840" width="234" height="49" as="geometry" />
        </mxCell>
        <mxCell id="cucAOomLdPTThUQUA-6N-141" style="edgeStyle=orthogonalEdgeStyle;rounded=1;orthogonalLoop=1;jettySize=auto;html=1;exitX=0;exitY=0.5;exitDx=0;exitDy=0;curved=0;" edge="1" parent="1">
          <mxGeometry relative="1" as="geometry">
            <mxPoint x="1643" y="546.5" as="sourcePoint" />
            <mxPoint x="1474" y="507" as="targetPoint" />
            <Array as="points">
              <mxPoint x="1650" y="546" />
              <mxPoint x="1650" y="540" />
              <mxPoint x="1559" y="540" />
              <mxPoint x="1559" y="500" />
              <mxPoint x="1474" y="500" />
            </Array>
          </mxGeometry>
        </mxCell>
        <mxCell id="cucAOomLdPTThUQUA-6N-151" value="&lt;font style=&quot;font-size: 15px;&quot;&gt;speech&lt;/font&gt;" style="edgeLabel;html=1;align=center;verticalAlign=middle;resizable=0;points=[];" connectable="0" vertex="1" parent="cucAOomLdPTThUQUA-6N-141">
          <mxGeometry x="-0.0769" y="-2" relative="1" as="geometry">
            <mxPoint y="-9" as="offset" />
          </mxGeometry>
        </mxCell>
        <mxCell id="cucAOomLdPTThUQUA-6N-127" value="Google Text&#xa;to Speech" style="whiteSpace=wrap;strokeWidth=2;fontSize=20;" vertex="1" parent="1">
          <mxGeometry x="1643" y="504" width="232" height="56" as="geometry" />
        </mxCell>
        <mxCell id="cucAOomLdPTThUQUA-6N-154" style="edgeStyle=orthogonalEdgeStyle;rounded=1;orthogonalLoop=1;jettySize=auto;html=1;exitX=0;exitY=0.75;exitDx=0;exitDy=0;entryX=1;entryY=0.5;entryDx=0;entryDy=0;curved=0;" edge="1" parent="1" source="cucAOomLdPTThUQUA-6N-128" target="cucAOomLdPTThUQUA-6N-125">
          <mxGeometry relative="1" as="geometry">
            <Array as="points">
              <mxPoint x="1560" y="716" />
              <mxPoint x="1560" y="769" />
            </Array>
          </mxGeometry>
        </mxCell>
        <mxCell id="cucAOomLdPTThUQUA-6N-155" value="&lt;font style=&quot;font-size: 15px;&quot;&gt;text&lt;/font&gt;" style="edgeLabel;html=1;align=center;verticalAlign=middle;resizable=0;points=[];" connectable="0" vertex="1" parent="cucAOomLdPTThUQUA-6N-154">
          <mxGeometry x="-0.3723" relative="1" as="geometry">
            <mxPoint y="28" as="offset" />
          </mxGeometry>
        </mxCell>
        <mxCell id="cucAOomLdPTThUQUA-6N-128" value="Google Speech&#xa;to Text" style="whiteSpace=wrap;strokeWidth=2;fontSize=20;" vertex="1" parent="1">
          <mxGeometry x="1643" y="679" width="232" height="61" as="geometry" />
        </mxCell>
        <mxCell id="cucAOomLdPTThUQUA-6N-129" value="" style="curved=1;startArrow=none;endArrow=block;exitX=0.5;exitY=1;entryX=0.5;entryY=0;rounded=0;" edge="1" parent="1" source="cucAOomLdPTThUQUA-6N-121" target="cucAOomLdPTThUQUA-6N-122">
          <mxGeometry relative="1" as="geometry">
            <Array as="points" />
          </mxGeometry>
        </mxCell>
        <mxCell id="cucAOomLdPTThUQUA-6N-145" value="&lt;font style=&quot;font-size: 15px;&quot;&gt;frames&lt;/font&gt;" style="edgeLabel;html=1;align=center;verticalAlign=middle;resizable=0;points=[];" connectable="0" vertex="1" parent="cucAOomLdPTThUQUA-6N-129">
          <mxGeometry x="-0.3" y="1" relative="1" as="geometry">
            <mxPoint as="offset" />
          </mxGeometry>
        </mxCell>
        <mxCell id="cucAOomLdPTThUQUA-6N-132" value="" style="curved=1;startArrow=none;endArrow=block;exitX=0.5;exitY=0.99;entryX=0.5;entryY=-0.01;rounded=0;" edge="1" parent="1" source="cucAOomLdPTThUQUA-6N-125" target="cucAOomLdPTThUQUA-6N-126">
          <mxGeometry relative="1" as="geometry">
            <Array as="points" />
          </mxGeometry>
        </mxCell>
        <mxCell id="cucAOomLdPTThUQUA-6N-156" value="&lt;font style=&quot;font-size: 15px;&quot;&gt;video of sign&lt;/font&gt;" style="edgeLabel;html=1;align=center;verticalAlign=middle;resizable=0;points=[];" connectable="0" vertex="1" parent="cucAOomLdPTThUQUA-6N-132">
          <mxGeometry x="-0.1086" y="2" relative="1" as="geometry">
            <mxPoint as="offset" />
          </mxGeometry>
        </mxCell>
        <mxCell id="cucAOomLdPTThUQUA-6N-137" value="video of sign" style="curved=0;startArrow=none;endArrow=block;rounded=1;exitX=1;exitY=0.25;exitDx=0;exitDy=0;entryX=0;entryY=0.5;entryDx=0;entryDy=0;fontSize=15;" edge="1" parent="1" source="cucAOomLdPTThUQUA-6N-119" target="cucAOomLdPTThUQUA-6N-121">
          <mxGeometry x="0.0162" y="20" relative="1" as="geometry">
            <Array as="points">
              <mxPoint x="1110" y="502" />
              <mxPoint x="1110" y="296" />
            </Array>
            <mxPoint as="offset" />
          </mxGeometry>
        </mxCell>
        <mxCell id="cucAOomLdPTThUQUA-6N-138" value="text and speech" style="curved=1;startArrow=none;endArrow=block;rounded=0;exitX=0;exitY=0.5;exitDx=0;exitDy=0;entryX=1;entryY=0.5;entryDx=0;entryDy=0;fontSize=15;" edge="1" parent="1">
          <mxGeometry x="0.1617" y="-1" relative="1" as="geometry">
            <Array as="points" />
            <mxPoint x="1230" y="520" as="sourcePoint" />
            <mxPoint x="989" y="522" as="targetPoint" />
            <mxPoint as="offset" />
          </mxGeometry>
        </mxCell>
        <mxCell id="cucAOomLdPTThUQUA-6N-139" value="audio of speech" style="curved=0;startArrow=none;endArrow=block;rounded=1;entryX=0;entryY=0.5;entryDx=0;entryDy=0;exitX=1;exitY=0.25;exitDx=0;exitDy=0;fontSize=15;" edge="1" parent="1">
          <mxGeometry x="-0.2713" y="1" relative="1" as="geometry">
            <Array as="points" />
            <mxPoint x="990" y="670" as="sourcePoint" />
            <mxPoint x="1264.5" y="668.1900000000003" as="targetPoint" />
            <mxPoint as="offset" />
          </mxGeometry>
        </mxCell>
        <mxCell id="cucAOomLdPTThUQUA-6N-140" value="text and video" style="curved=0;startArrow=none;endArrow=block;rounded=1;exitX=0;exitY=0.5;exitDx=0;exitDy=0;fontSize=15;" edge="1" parent="1">
          <mxGeometry relative="1" as="geometry">
            <Array as="points">
              <mxPoint x="1110" y="865" />
              <mxPoint x="1110" y="685" />
            </Array>
            <mxPoint x="1235" y="869.5" as="sourcePoint" />
            <mxPoint x="989" y="685" as="targetPoint" />
          </mxGeometry>
        </mxCell>
        <mxCell id="cucAOomLdPTThUQUA-6N-158" style="edgeStyle=orthogonalEdgeStyle;rounded=1;orthogonalLoop=1;jettySize=auto;html=1;entryX=1;entryY=0.5;entryDx=0;entryDy=0;curved=0;" edge="1" parent="1">
          <mxGeometry relative="1" as="geometry">
            <mxPoint x="1560" y="760" as="sourcePoint" />
            <mxPoint x="1470" y="863" as="targetPoint" />
            <Array as="points">
              <mxPoint x="1560" y="863" />
            </Array>
          </mxGeometry>
        </mxCell>
        <mxCell id="cucAOomLdPTThUQUA-6N-159" value="&lt;font style=&quot;font-size: 15px;&quot;&gt;text&lt;/font&gt;" style="edgeLabel;html=1;align=center;verticalAlign=middle;resizable=0;points=[];" connectable="0" vertex="1" parent="cucAOomLdPTThUQUA-6N-158">
          <mxGeometry x="-0.3723" relative="1" as="geometry">
            <mxPoint y="-1" as="offset" />
          </mxGeometry>
        </mxCell>
      </root>
    </mxGraphModel>
  </diagram>
</mxfile>
